<?xml version="1.0" standalone="no"?>
<!DOCTYPE svg PUBLIC "-//W3C//DTD SVG 20010904//EN"
 "http://www.w3.org/TR/2001/REC-SVG-20010904/DTD/svg10.dtd">
<svg version="1.0" xmlns="http://www.w3.org/2000/svg"
 width="1186.000000pt" height="1186.000000pt" viewBox="0 0 1186.000000 1186.000000"
 preserveAspectRatio="xMidYMid meet">
<metadata>
Created by potrace 1.14, written by Peter Selinger 2001-2017
</metadata>
<g transform="translate(0.000000,1186.000000) scale(0.100000,-0.100000)"
fill="#000000" stroke="none">
<path d="M6275 8488 c-2 -7 -268 -994 -590 -2193 -323 -1199 -663 -2463 -756
-2809 -93 -346 -169 -630 -169 -633 0 -2 185 -2 411 -1 l412 3 78 290 c864
3212 1097 4079 1249 4645 99 371 183 683 186 693 5 16 -19 17 -406 17 -319 0
-412 -3 -415 -12z"/>
<path d="M2860 6546 l-1595 -711 0 -394 0 -394 1530 -678 c842 -373 1565 -694
1608 -713 l77 -35 0 453 0 453 -1092 444 c-1014 412 -1093 446 -1096 469 -2
24 36 41 1093 470 l1095 445 0 453 c0 355 -3 452 -12 451 -7 0 -731 -321
-1608 -713z"/>
<path d="M7380 6807 l0 -452 1098 -446 c1013 -412 1097 -448 1097 -470 0 -21
-83 -56 -1094 -466 -602 -244 -1096 -445 -1098 -446 -2 -2 -2 -206 -1 -453 l3
-450 1605 712 1605 712 0 393 0 393 -1600 713 c-880 392 -1603 713 -1607 713
-5 0 -8 -204 -8 -453z"/>
</g>
</svg>
